<?xml version="1.0" encoding="UTF-8" standalone="no"?><!DOCTYPE svg PUBLIC "-//W3C//DTD SVG 1.1//EN" "http://www.w3.org/Graphics/SVG/1.1/DTD/svg11.dtd"><svg width="100%" height="100%" viewBox="0 0 1080 1080" version="1.1" xmlns="http://www.w3.org/2000/svg" xmlns:xlink="http://www.w3.org/1999/xlink" xml:space="preserve" xmlns:serif="http://www.serif.com/" style="fill-rule:evenodd;clip-rule:evenodd;stroke-linecap:round;stroke-linejoin:round;stroke-miterlimit:1.5;"><g><path d="M807.869,439.457c10.685,9.322 18.085,21.838 21.1,35.694c6.735,30.966 18.997,87.32 24.314,111.762c1.712,7.864 2.522,15.896 2.416,23.942c-0.287,21.809 -0.859,65.441 -0.859,65.441l-154.775,-0l0,-271.923c0,-3.373 1.574,-6.553 4.254,-8.601c2.679,-2.045 6.16,-2.726 9.415,-1.839c12.262,3.346 30.32,8.272 43.615,11.899c11.462,3.127 22.069,8.809 31.024,16.62c6.027,5.257 13.172,11.487 19.496,17.005Z" style="fill:#a66231;"/><path d="M698.729,615.38l-1.074,144.445l-106.914,6.43c-0,100.239 76.489,181.497 170.844,181.497c94.29,-0 170.842,-81.326 170.842,-181.497c0,-100.238 -113.556,-209.97 -233.698,-150.875Z" style="fill:#d2d2d2;"/><path d="M308.098,393.526l0,368.941c0,-0 -14.508,-3.068 -31.885,-6.742c-35.676,-7.544 -63.962,-34.709 -72.94,-70.051c-12.834,-50.524 -31.27,-123.092 -43.362,-170.691c-7.486,-29.467 3.297,-60.559 27.42,-79.062c0.231,-0.178 0.354,-0.272 0.354,-0.272c0,0 23.557,-15.902 39.402,-26.598c9.239,-6.235 19.905,-10.031 31.005,-11.028c19.827,-1.784 50.006,-4.497 50.006,-4.497Z" style="fill:#767b75;"/><path d="M693.379,377.683l-0.546,-0l0,-51.776l25.417,-0l0,23.497c-12.234,0.068 -22.451,12.181 -24.871,28.279Z" style="fill:#0b1047;"/><rect x="482.566" y="325.907" width="150.896" height="39.873" style="fill:#0b1047;"/><path d="M477.835,383.143c3.238,-5.749 8.338,-10.418 13.872,-10.418c5.533,0 10.635,4.669 13.873,10.418c-0,-19.167 -6.216,-34.728 -13.873,-34.728c-7.656,0 -13.872,15.561 -13.872,34.728Z" style="fill:#0b1047;"/><path d="M583.458,383.143c3.235,-5.749 8.337,-10.418 13.87,-10.418c5.535,0 10.637,4.669 13.872,10.418c0,-19.167 -6.216,-34.728 -13.872,-34.728c-7.654,0 -13.87,15.561 -13.87,34.728Z" style="fill:#0b1047;"/><path d="M507.215,676.296l228.643,-0c51.032,-0 92.4,38.58 92.4,86.171c-0,47.59 -41.368,86.168 -92.4,86.168l-228.643,0l0,-4.964c28.063,-11.884 48.176,-43.774 48.176,-81.204c0,-37.433 -20.113,-69.321 -48.176,-81.205l0,-4.966Z" style="fill:#1947ff;"/><path d="M415.855,809.817c58.877,28.116 101.641,-11.483 100.968,-50.645c-0.539,-31.327 -21.791,-59.445 -58.416,-58.817c-24.416,0.42 -33.96,17.067 -28.771,37.301c2.713,10.584 15.854,36.201 31.02,20.078" style="fill:#1947ff;fill-opacity:0;stroke:#1947ff;stroke-width:38.29px;"/><path d="M344.331,262.673c-2.192,-58.751 -48.38,-116.47 -100.703,-115.258c-21.902,0.507 -39.152,-1.931 -63.084,20.593c-8.967,8.437 -33.758,43.572 -32.952,63.083c1.245,30.139 33.279,63.917 55.514,63.917c24.418,-0 55.618,3.785 55.452,-9.385c-0.138,-10.926 -12.59,-57.496 -28.03,-41.636" style="fill:#0b1047;fill-opacity:0;stroke:#0b1047;stroke-width:72.38px;"/><rect x="396.266" y="279.033" width="355.054" height="25.786" style="fill:#0b1047;"/><path d="M314.849,124.558l-0,-1.61l435.554,0c38.583,0 69.859,31.277 69.859,69.859l0,0.007c0,38.582 -31.276,69.859 -69.859,69.859l-357.706,-0c0.72,-6.031 1.093,-12.207 1.093,-18.495c-0,-60.17 -34.187,-110.16 -78.941,-119.62Z" style="fill:#0b1047;"/><path d="M399.223,706.002l-2.957,0l-0,-380.095l86.3,-0l0,330.474c-2.548,-0.182 -5.132,-0.275 -7.747,-0.275c-40.026,-0 -72.847,22.031 -75.596,49.896Z" style="fill:#0b1047;"/><rect x="501.4" y="325.907" width="86.298" height="328.695" style="fill:#0b1047;"/><rect x="606.535" y="325.907" width="86.298" height="328.695" style="fill:#0b1047;"/><path d="M380.474,262.673l-0,694.379l-0.005,-0c-39.97,-0 -72.371,-32.403 -72.371,-72.371l0,-622.008l72.376,-0Z" style="fill:#0b1047;"/></g></svg>