<?xml version="1.0" encoding="UTF-8" standalone="no"?><!DOCTYPE svg PUBLIC "-//W3C//DTD SVG 1.1//EN" "http://www.w3.org/Graphics/SVG/1.1/DTD/svg11.dtd"><svg width="100%" height="100%" viewBox="0 0 1080 1080" version="1.1" xmlns="http://www.w3.org/2000/svg" xmlns:xlink="http://www.w3.org/1999/xlink" xml:space="preserve" xmlns:serif="http://www.serif.com/" style="fill-rule:evenodd;clip-rule:evenodd;stroke-linecap:round;stroke-linejoin:round;stroke-miterlimit:1.5;"><g><path d="M666.267,417.019c5.037,4.394 8.525,10.294 9.946,16.825c3.175,14.597 8.955,41.161 11.461,52.682c0.807,3.707 1.189,7.493 1.139,11.286c-0.135,10.28 -0.405,30.847 -0.405,30.847l-72.957,0l0,-128.178c0,-1.59 0.742,-3.089 2.005,-4.054c1.263,-0.964 2.904,-1.285 4.438,-0.867c5.78,1.577 14.292,3.899 20.559,5.609c5.403,1.474 10.403,4.152 14.624,7.834c2.841,2.478 6.209,5.415 9.19,8.016Z" style="fill:#a66231;"/><path d="M614.821,499.945l-0.506,68.088l-50.397,3.031c0,47.25 36.055,85.553 80.532,85.553c44.446,0 80.531,-38.335 80.531,-85.553c0,-47.25 -53.528,-98.975 -110.16,-71.119Z" style="fill:#d2d2d2;"/><path d="M430.687,395.368l0,173.91c0,-0 -6.839,-1.446 -15.03,-3.178c-16.817,-3.556 -30.15,-16.361 -34.382,-33.02c-6.05,-23.816 -14.74,-58.023 -20.44,-80.46c-3.529,-13.89 1.554,-28.546 12.925,-37.268c0.109,-0.084 0.167,-0.128 0.167,-0.128c0,-0 11.104,-7.496 18.573,-12.538c4.355,-2.939 9.383,-4.728 14.615,-5.198c9.346,-0.841 23.572,-2.12 23.572,-2.12Z" style="fill:#767b75;"/><path d="M612.299,387.9l-0.257,-0l0,-24.406l11.981,-0l-0,11.076c-5.767,0.032 -10.583,5.742 -11.724,13.33Z" style="fill:#0b1047;"/><rect x="512.927" y="363.494" width="71.129" height="18.795" style="fill:#0b1047;"/><path d="M510.697,390.474c1.526,-2.71 3.93,-4.911 6.539,-4.911c2.608,0 5.013,2.201 6.539,4.911c-0,-9.035 -2.93,-16.37 -6.539,-16.37c-3.609,-0 -6.539,7.335 -6.539,16.37Z" style="fill:#0b1047;"/><path d="M560.485,390.474c1.525,-2.71 3.93,-4.911 6.538,-4.911c2.609,0 5.014,2.201 6.539,4.911c0,-9.035 -2.93,-16.37 -6.539,-16.37c-3.608,-0 -6.538,7.335 -6.538,16.37Z" style="fill:#0b1047;"/><path d="M524.546,528.659l107.777,0c24.055,0 43.555,18.186 43.555,40.619c0,22.433 -19.5,40.618 -43.555,40.618l-107.777,0l0,-2.34c13.228,-5.602 22.709,-20.634 22.709,-38.278c-0,-17.645 -9.481,-32.676 -22.709,-38.278l0,-2.341Z" style="fill:#1947ff;"/><path d="M481.481,591.598c27.753,13.253 47.911,-5.413 47.594,-23.873c-0.254,-14.767 -10.272,-28.021 -27.536,-27.725c-11.509,0.198 -16.008,8.045 -13.562,17.583c1.279,4.989 7.473,17.064 14.622,9.464" style="fill:#1947ff;fill-opacity:0;stroke:#1947ff;stroke-width:18.05px;"/><path d="M447.766,333.687c-1.033,-27.694 -22.805,-54.901 -47.469,-54.33c-10.324,0.239 -18.455,-0.91 -29.736,9.707c-4.227,3.977 -15.913,20.539 -15.533,29.736c0.587,14.207 15.687,30.129 26.168,30.129c11.51,0 26.217,1.784 26.139,-4.424c-0.065,-5.15 -5.935,-27.102 -13.213,-19.626" style="fill:#0b1047;fill-opacity:0;stroke:#0b1047;stroke-width:34.12px;"/><rect x="472.247" y="341.399" width="167.364" height="12.155" style="fill:#0b1047;"/><path d="M433.869,268.583l0,-0.759l205.31,-0c18.187,-0 32.93,14.743 32.93,32.93l0,0.003c0,18.187 -14.743,32.93 -32.93,32.93l-168.614,0c0.339,-2.843 0.515,-5.754 0.515,-8.718c0,-28.363 -16.115,-51.927 -37.211,-56.386Z" style="fill:#0b1047;"/><path d="M473.641,542.662l-1.394,0l0,-179.168l40.68,-0l-0,155.778c-1.201,-0.086 -2.419,-0.13 -3.652,-0.13c-18.867,-0 -34.338,10.385 -35.634,23.52Z" style="fill:#0b1047;"/><rect x="521.805" y="363.494" width="40.679" height="154.939" style="fill:#0b1047;"/><rect x="571.363" y="363.494" width="40.679" height="154.939" style="fill:#0b1047;"/><path d="M464.803,333.687l-0,327.314c-0,-0 -0.001,-0 -0.002,-0c-18.841,-0 -34.114,-15.274 -34.114,-34.114c0,-83.842 0,-293.2 0,-293.2l34.116,0Z" style="fill:#0b1047;"/></g><g transform="matrix(200.602,0,0,200.602,814.849,884.837)"></g><text x="272.4px" y="884.837px" style="font-family:'MSReferenceSansSerif', 'MS Reference Sans Serif', sans-serif;font-size:200.602px;fill:#0b1047;">ARKE</text></svg>